# xmcd
#
# Track frame offsets:
#	150
#	15499
#	33227
#	54675
#	76911
#	95375
#	114743
#	132963
#	149295
#	166527
#	187135
#	205875
#	221887
#	239215
#	258855
#	274819
#
# Disc length: 3923 seconds
#
# Revision: 1
# Processed by: cddbd v1.5.2PL0 Copyright (c) Steve Scherf et al.
# Submitted via: EZCDAudioConverter 8.0.2.1
#
DISCID=e80f5110
DTITLE=孙悦 - 独一无二
DYEAR=2015
DGENRE=
TTITLE0=独一无二
TTITLE1=魅力无限
TTITLE2=早晨
TTITLE3=哭泣的百合花
TTITLE4=野火
TTITLE5=爱情俘虏
TTITLE6=幸福快车
TTITLE7=怎么HAPPY
TTITLE8=大家一起来
TTITLE9=柔情似水
TTITLE10=祝你平安
TTITLE11=欢乐颂
TTITLE12=我的祝福记得吗
TTITLE13=欢乐中国年
TTITLE14=我心飞翔
TTITLE15=好人好梦
EXTD=
EXTT0=
EXTT1=
EXTT2=
EXTT3=
EXTT4=
EXTT5=
EXTT6=
EXTT7=
EXTT8=
EXTT9=
EXTT10=
EXTT11=
EXTT12=
EXTT13=
EXTT14=
EXTT15=
PLAYORDER=
